<?xml version="1.0" encoding="utf-8" standalone="no"?>
<!DOCTYPE svg PUBLIC "-//W3C//DTD SVG 1.1//EN"
  "http://www.w3.org/Graphics/SVG/1.1/DTD/svg11.dtd">
<svg xmlns:xlink="http://www.w3.org/1999/xlink" width="1152pt" height="576pt" viewBox="0 0 1152 576" xmlns="http://www.w3.org/2000/svg" version="1.1">
 <metadata>
  <rdf:RDF xmlns:dc="http://purl.org/dc/elements/1.1/" xmlns:cc="http://creativecommons.org/ns#" xmlns:rdf="http://www.w3.org/1999/02/22-rdf-syntax-ns#">
   <cc:Work>
    <dc:type rdf:resource="http://purl.org/dc/dcmitype/StillImage"/>
    <dc:date>2025-05-15T00:35:54.173082</dc:date>
    <dc:format>image/svg+xml</dc:format>
    <dc:creator>
     <cc:Agent>
      <dc:title>Matplotlib v3.7.2, https://matplotlib.org/</dc:title>
     </cc:Agent>
    </dc:creator>
   </cc:Work>
  </rdf:RDF>
 </metadata>
 <defs>
  <style type="text/css">*{stroke-linejoin: round; stroke-linecap: butt}</style>
 </defs>
 <g id="figure_1">
  <g id="patch_1">
   <path d="M 0 576 
L 1152 576 
L 1152 0 
L 0 0 
z
" style="fill: #ffffff"/>
  </g>
  <g id="axes_1">
   <g id="patch_2">
    <path d="M 137.342282 173.055849 
C 114.142022 200.704843 98.062268 233.619505 90.512687 268.914303 
C 82.963105 304.209102 84.170953 340.821593 94.030342 375.542068 
C 103.889731 410.262544 122.103873 442.045848 147.075989 468.105633 
C 172.048105 494.165419 203.026484 513.717233 237.295344 525.047027 
L 306.688914 315.154545 
z
" style="fill: #f2b8a0; stroke: #ffffff; stroke-width: 3; stroke-linejoin: miter"/>
   </g>
   <g id="patch_3">
    <path d="M 237.295344 525.047027 
C 265.222087 534.280023 294.712753 537.847258 324.035513 535.539247 
C 353.358273 533.231237 381.927679 525.094062 408.066002 511.605576 
C 434.204325 498.11709 457.389695 479.546599 476.260561 456.984648 
C 495.131427 434.422697 509.311018 408.319752 517.966643 380.208698 
L 306.688914 315.154545 
z
" style="fill: #bfd8c2; stroke: #ffffff; stroke-width: 3; stroke-linejoin: miter"/>
   </g>
   <g id="patch_4">
    <path d="M 517.966643 380.208698 
C 531.547726 336.101129 530.981567 288.828692 516.34802 245.059036 
C 501.714474 201.28938 473.73549 163.181895 436.357429 136.111541 
L 306.688914 315.154545 
z
" style="fill: #a2b6d4; stroke: #ffffff; stroke-width: 3; stroke-linejoin: miter"/>
   </g>
   <g id="patch_5">
    <path d="M 436.357429 136.111541 
C 410.623209 117.474018 381.170696 104.601956 350.012519 98.374965 
C 318.854343 92.147974 286.716775 92.711199 255.795927 100.026153 
L 306.688914 315.154545 
z
" style="fill: #fae49e; stroke: #ffffff; stroke-width: 3; stroke-linejoin: miter"/>
   </g>
   <g id="patch_6">
    <path d="M 255.795927 100.026153 
C 238.612214 104.091309 221.977293 110.200726 206.247135 118.223668 
C 190.516977 126.246611 175.804591 136.12544 162.424807 147.648758 
L 306.688914 315.154545 
z
" style="fill: #cfc3e6; stroke: #ffffff; stroke-width: 3; stroke-linejoin: miter"/>
   </g>
   <g id="patch_7">
    <path d="M 162.424807 147.648758 
C 157.910573 151.536636 153.555349 155.605411 149.369804 159.845116 
C 145.184258 164.084822 141.171811 168.491995 137.342291 173.055839 
L 306.688914 315.154545 
z
" style="fill: #9daabf; stroke: #ffffff; stroke-width: 3; stroke-linejoin: miter"/>
   </g>
   <g id="patch_8">
    <path d="M 306.688914 408.682607 
C 331.492846 408.682607 355.284213 398.827901 372.823241 381.288872 
C 390.362269 363.749844 400.216976 339.958477 400.216976 315.154545 
C 400.216976 290.350614 390.362269 266.559247 372.823241 249.020219 
C 355.284213 231.48119 331.492846 221.626484 306.688914 221.626484 
C 281.884982 221.626484 258.093616 231.48119 240.554588 249.020219 
C 223.015559 266.559247 213.160853 290.350614 213.160853 315.154545 
C 213.160853 339.958477 223.015559 363.749844 240.554588 381.288872 
C 258.093616 398.827901 281.884982 408.682607 306.688914 408.682607 
z
" clip-path="url(#p4bff91250f)" style="fill: #ffffff"/>
   </g>
   <g id="matplotlib.axis_1"/>
   <g id="matplotlib.axis_2"/>
   <g id="patch_9">
    <path d="M 116.429863 366.982387 
Q 120.589733 366.687767 124.749603 366.393148 
" style="fill: none; stroke: #f2b8a0; stroke-linecap: round"/>
   </g>
   <g id="text_1">
    <g id="patch_10">
     <path d="M 11.9301 379.519843 
L 110.388694 379.519843 
Q 113.688694 379.519843 113.688694 376.219843 
L 113.688694 365.573906 
Q 113.688694 362.273906 110.388694 362.273906 
L 11.9301 362.273906 
Q 8.6301 362.273906 8.6301 365.573906 
L 8.6301 376.219843 
Q 8.6301 379.519843 11.9301 379.519843 
z
" style="fill: #ffffff; stroke: #f2b8a0; stroke-width: 1.5; stroke-linejoin: miter"/>
    </g>
    <!-- Java: 615 (31.0%) -->
    <g transform="translate(11.9301 373.932187) scale(0.11 -0.11)">
     <defs>
      <path id="DejaVuSans-4a" d="M 628 4666 
L 1259 4666 
L 1259 325 
Q 1259 -519 939 -900 
Q 619 -1281 -91 -1281 
L -331 -1281 
L -331 -750 
L -134 -750 
Q 284 -750 456 -515 
Q 628 -281 628 325 
L 628 4666 
z
" transform="scale(0.015625)"/>
      <path id="DejaVuSans-61" d="M 2194 1759 
Q 1497 1759 1228 1600 
Q 959 1441 959 1056 
Q 959 750 1161 570 
Q 1363 391 1709 391 
Q 2188 391 2477 730 
Q 2766 1069 2766 1631 
L 2766 1759 
L 2194 1759 
z
M 3341 1997 
L 3341 0 
L 2766 0 
L 2766 531 
Q 2569 213 2275 61 
Q 1981 -91 1556 -91 
Q 1019 -91 701 211 
Q 384 513 384 1019 
Q 384 1609 779 1909 
Q 1175 2209 1959 2209 
L 2766 2209 
L 2766 2266 
Q 2766 2663 2505 2880 
Q 2244 3097 1772 3097 
Q 1472 3097 1187 3025 
Q 903 2953 641 2809 
L 641 3341 
Q 956 3463 1253 3523 
Q 1550 3584 1831 3584 
Q 2591 3584 2966 3190 
Q 3341 2797 3341 1997 
z
" transform="scale(0.015625)"/>
      <path id="DejaVuSans-76" d="M 191 3500 
L 800 3500 
L 1894 563 
L 2988 3500 
L 3597 3500 
L 2284 0 
L 1503 0 
L 191 3500 
z
" transform="scale(0.015625)"/>
      <path id="DejaVuSans-3a" d="M 750 794 
L 1409 794 
L 1409 0 
L 750 0 
L 750 794 
z
M 750 3309 
L 1409 3309 
L 1409 2516 
L 750 2516 
L 750 3309 
z
" transform="scale(0.015625)"/>
      <path id="DejaVuSans-20" transform="scale(0.015625)"/>
      <path id="DejaVuSans-36" d="M 2113 2584 
Q 1688 2584 1439 2293 
Q 1191 2003 1191 1497 
Q 1191 994 1439 701 
Q 1688 409 2113 409 
Q 2538 409 2786 701 
Q 3034 994 3034 1497 
Q 3034 2003 2786 2293 
Q 2538 2584 2113 2584 
z
M 3366 4563 
L 3366 3988 
Q 3128 4100 2886 4159 
Q 2644 4219 2406 4219 
Q 1781 4219 1451 3797 
Q 1122 3375 1075 2522 
Q 1259 2794 1537 2939 
Q 1816 3084 2150 3084 
Q 2853 3084 3261 2657 
Q 3669 2231 3669 1497 
Q 3669 778 3244 343 
Q 2819 -91 2113 -91 
Q 1303 -91 875 529 
Q 447 1150 447 2328 
Q 447 3434 972 4092 
Q 1497 4750 2381 4750 
Q 2619 4750 2861 4703 
Q 3103 4656 3366 4563 
z
" transform="scale(0.015625)"/>
      <path id="DejaVuSans-31" d="M 794 531 
L 1825 531 
L 1825 4091 
L 703 3866 
L 703 4441 
L 1819 4666 
L 2450 4666 
L 2450 531 
L 3481 531 
L 3481 0 
L 794 0 
L 794 531 
z
" transform="scale(0.015625)"/>
      <path id="DejaVuSans-35" d="M 691 4666 
L 3169 4666 
L 3169 4134 
L 1269 4134 
L 1269 2991 
Q 1406 3038 1543 3061 
Q 1681 3084 1819 3084 
Q 2600 3084 3056 2656 
Q 3513 2228 3513 1497 
Q 3513 744 3044 326 
Q 2575 -91 1722 -91 
Q 1428 -91 1123 -41 
Q 819 9 494 109 
L 494 744 
Q 775 591 1075 516 
Q 1375 441 1709 441 
Q 2250 441 2565 725 
Q 2881 1009 2881 1497 
Q 2881 1984 2565 2268 
Q 2250 2553 1709 2553 
Q 1456 2553 1204 2497 
Q 953 2441 691 2322 
L 691 4666 
z
" transform="scale(0.015625)"/>
      <path id="DejaVuSans-28" d="M 1984 4856 
Q 1566 4138 1362 3434 
Q 1159 2731 1159 2009 
Q 1159 1288 1364 580 
Q 1569 -128 1984 -844 
L 1484 -844 
Q 1016 -109 783 600 
Q 550 1309 550 2009 
Q 550 2706 781 3412 
Q 1013 4119 1484 4856 
L 1984 4856 
z
" transform="scale(0.015625)"/>
      <path id="DejaVuSans-33" d="M 2597 2516 
Q 3050 2419 3304 2112 
Q 3559 1806 3559 1356 
Q 3559 666 3084 287 
Q 2609 -91 1734 -91 
Q 1441 -91 1130 -33 
Q 819 25 488 141 
L 488 750 
Q 750 597 1062 519 
Q 1375 441 1716 441 
Q 2309 441 2620 675 
Q 2931 909 2931 1356 
Q 2931 1769 2642 2001 
Q 2353 2234 1838 2234 
L 1294 2234 
L 1294 2753 
L 1863 2753 
Q 2328 2753 2575 2939 
Q 2822 3125 2822 3475 
Q 2822 3834 2567 4026 
Q 2313 4219 1838 4219 
Q 1578 4219 1281 4162 
Q 984 4106 628 3988 
L 628 4550 
Q 988 4650 1302 4700 
Q 1616 4750 1894 4750 
Q 2613 4750 3031 4423 
Q 3450 4097 3450 3541 
Q 3450 3153 3228 2886 
Q 3006 2619 2597 2516 
z
" transform="scale(0.015625)"/>
      <path id="DejaVuSans-2e" d="M 684 794 
L 1344 794 
L 1344 0 
L 684 0 
L 684 794 
z
" transform="scale(0.015625)"/>
      <path id="DejaVuSans-30" d="M 2034 4250 
Q 1547 4250 1301 3770 
Q 1056 3291 1056 2328 
Q 1056 1369 1301 889 
Q 1547 409 2034 409 
Q 2525 409 2770 889 
Q 3016 1369 3016 2328 
Q 3016 3291 2770 3770 
Q 2525 4250 2034 4250 
z
M 2034 4750 
Q 2819 4750 3233 4129 
Q 3647 3509 3647 2328 
Q 3647 1150 3233 529 
Q 2819 -91 2034 -91 
Q 1250 -91 836 529 
Q 422 1150 422 2328 
Q 422 3509 836 4129 
Q 1250 4750 2034 4750 
z
" transform="scale(0.015625)"/>
      <path id="DejaVuSans-25" d="M 4653 2053 
Q 4381 2053 4226 1822 
Q 4072 1591 4072 1178 
Q 4072 772 4226 539 
Q 4381 306 4653 306 
Q 4919 306 5073 539 
Q 5228 772 5228 1178 
Q 5228 1588 5073 1820 
Q 4919 2053 4653 2053 
z
M 4653 2450 
Q 5147 2450 5437 2106 
Q 5728 1763 5728 1178 
Q 5728 594 5436 251 
Q 5144 -91 4653 -91 
Q 4153 -91 3862 251 
Q 3572 594 3572 1178 
Q 3572 1766 3864 2108 
Q 4156 2450 4653 2450 
z
M 1428 4353 
Q 1159 4353 1004 4120 
Q 850 3888 850 3481 
Q 850 3069 1003 2837 
Q 1156 2606 1428 2606 
Q 1700 2606 1854 2837 
Q 2009 3069 2009 3481 
Q 2009 3884 1853 4118 
Q 1697 4353 1428 4353 
z
M 4250 4750 
L 4750 4750 
L 1831 -91 
L 1331 -91 
L 4250 4750 
z
M 1428 4750 
Q 1922 4750 2215 4408 
Q 2509 4066 2509 3481 
Q 2509 2891 2217 2550 
Q 1925 2209 1428 2209 
Q 931 2209 642 2551 
Q 353 2894 353 3481 
Q 353 4063 643 4406 
Q 934 4750 1428 4750 
z
" transform="scale(0.015625)"/>
      <path id="DejaVuSans-29" d="M 513 4856 
L 1013 4856 
Q 1481 4119 1714 3412 
Q 1947 2706 1947 2009 
Q 1947 1309 1714 600 
Q 1481 -109 1013 -844 
L 513 -844 
Q 928 -128 1133 580 
Q 1338 1288 1338 2009 
Q 1338 2731 1133 3434 
Q 928 4138 513 4856 
z
" transform="scale(0.015625)"/>
     </defs>
     <use xlink:href="#DejaVuSans-4a"/>
     <use xlink:href="#DejaVuSans-61" x="29.492188"/>
     <use xlink:href="#DejaVuSans-76" x="90.771484"/>
     <use xlink:href="#DejaVuSans-61" x="149.951172"/>
     <use xlink:href="#DejaVuSans-3a" x="211.230469"/>
     <use xlink:href="#DejaVuSans-20" x="244.921875"/>
     <use xlink:href="#DejaVuSans-36" x="276.708984"/>
     <use xlink:href="#DejaVuSans-31" x="340.332031"/>
     <use xlink:href="#DejaVuSans-35" x="403.955078"/>
     <use xlink:href="#DejaVuSans-20" x="467.578125"/>
     <use xlink:href="#DejaVuSans-28" x="499.365234"/>
     <use xlink:href="#DejaVuSans-33" x="538.378906"/>
     <use xlink:href="#DejaVuSans-31" x="602.001953"/>
     <use xlink:href="#DejaVuSans-2e" x="665.625"/>
     <use xlink:href="#DejaVuSans-30" x="697.412109"/>
     <use xlink:href="#DejaVuSans-25" x="761.035156"/>
     <use xlink:href="#DejaVuSans-29" x="856.054688"/>
    </g>
   </g>
   <g id="patch_11">
    <path d="M 415.004561 486.664241 
Q 404.709472 484.251215 394.414384 481.838188 
" style="fill: none; stroke: #bfd8c2; stroke-linecap: round"/>
   </g>
   <g id="text_2">
    <g id="patch_12">
     <path d="M 400.267764 505.116927 
L 513.617608 505.116927 
Q 516.917608 505.116927 516.917608 501.816927 
L 516.917608 491.17099 
Q 516.917608 487.87099 513.617608 487.87099 
L 400.267764 487.87099 
Q 396.967764 487.87099 396.967764 491.17099 
L 396.967764 501.816927 
Q 396.967764 505.116927 400.267764 505.116927 
z
" style="fill: #ffffff; stroke: #bfd8c2; stroke-width: 1.5; stroke-linejoin: miter"/>
    </g>
    <!-- Python: 502 (25.3%) -->
    <g transform="translate(400.267764 499.529271) scale(0.11 -0.11)">
     <defs>
      <path id="DejaVuSans-50" d="M 1259 4147 
L 1259 2394 
L 2053 2394 
Q 2494 2394 2734 2622 
Q 2975 2850 2975 3272 
Q 2975 3691 2734 3919 
Q 2494 4147 2053 4147 
L 1259 4147 
z
M 628 4666 
L 2053 4666 
Q 2838 4666 3239 4311 
Q 3641 3956 3641 3272 
Q 3641 2581 3239 2228 
Q 2838 1875 2053 1875 
L 1259 1875 
L 1259 0 
L 628 0 
L 628 4666 
z
" transform="scale(0.015625)"/>
      <path id="DejaVuSans-79" d="M 2059 -325 
Q 1816 -950 1584 -1140 
Q 1353 -1331 966 -1331 
L 506 -1331 
L 506 -850 
L 844 -850 
Q 1081 -850 1212 -737 
Q 1344 -625 1503 -206 
L 1606 56 
L 191 3500 
L 800 3500 
L 1894 763 
L 2988 3500 
L 3597 3500 
L 2059 -325 
z
" transform="scale(0.015625)"/>
      <path id="DejaVuSans-74" d="M 1172 4494 
L 1172 3500 
L 2356 3500 
L 2356 3053 
L 1172 3053 
L 1172 1153 
Q 1172 725 1289 603 
Q 1406 481 1766 481 
L 2356 481 
L 2356 0 
L 1766 0 
Q 1100 0 847 248 
Q 594 497 594 1153 
L 594 3053 
L 172 3053 
L 172 3500 
L 594 3500 
L 594 4494 
L 1172 4494 
z
" transform="scale(0.015625)"/>
      <path id="DejaVuSans-68" d="M 3513 2113 
L 3513 0 
L 2938 0 
L 2938 2094 
Q 2938 2591 2744 2837 
Q 2550 3084 2163 3084 
Q 1697 3084 1428 2787 
Q 1159 2491 1159 1978 
L 1159 0 
L 581 0 
L 581 4863 
L 1159 4863 
L 1159 2956 
Q 1366 3272 1645 3428 
Q 1925 3584 2291 3584 
Q 2894 3584 3203 3211 
Q 3513 2838 3513 2113 
z
" transform="scale(0.015625)"/>
      <path id="DejaVuSans-6f" d="M 1959 3097 
Q 1497 3097 1228 2736 
Q 959 2375 959 1747 
Q 959 1119 1226 758 
Q 1494 397 1959 397 
Q 2419 397 2687 759 
Q 2956 1122 2956 1747 
Q 2956 2369 2687 2733 
Q 2419 3097 1959 3097 
z
M 1959 3584 
Q 2709 3584 3137 3096 
Q 3566 2609 3566 1747 
Q 3566 888 3137 398 
Q 2709 -91 1959 -91 
Q 1206 -91 779 398 
Q 353 888 353 1747 
Q 353 2609 779 3096 
Q 1206 3584 1959 3584 
z
" transform="scale(0.015625)"/>
      <path id="DejaVuSans-6e" d="M 3513 2113 
L 3513 0 
L 2938 0 
L 2938 2094 
Q 2938 2591 2744 2837 
Q 2550 3084 2163 3084 
Q 1697 3084 1428 2787 
Q 1159 2491 1159 1978 
L 1159 0 
L 581 0 
L 581 3500 
L 1159 3500 
L 1159 2956 
Q 1366 3272 1645 3428 
Q 1925 3584 2291 3584 
Q 2894 3584 3203 3211 
Q 3513 2838 3513 2113 
z
" transform="scale(0.015625)"/>
      <path id="DejaVuSans-32" d="M 1228 531 
L 3431 531 
L 3431 0 
L 469 0 
L 469 531 
Q 828 903 1448 1529 
Q 2069 2156 2228 2338 
Q 2531 2678 2651 2914 
Q 2772 3150 2772 3378 
Q 2772 3750 2511 3984 
Q 2250 4219 1831 4219 
Q 1534 4219 1204 4116 
Q 875 4013 500 3803 
L 500 4441 
Q 881 4594 1212 4672 
Q 1544 4750 1819 4750 
Q 2544 4750 2975 4387 
Q 3406 4025 3406 3419 
Q 3406 3131 3298 2873 
Q 3191 2616 2906 2266 
Q 2828 2175 2409 1742 
Q 1991 1309 1228 531 
z
" transform="scale(0.015625)"/>
     </defs>
     <use xlink:href="#DejaVuSans-50"/>
     <use xlink:href="#DejaVuSans-79" x="60.302734"/>
     <use xlink:href="#DejaVuSans-74" x="119.482422"/>
     <use xlink:href="#DejaVuSans-68" x="158.691406"/>
     <use xlink:href="#DejaVuSans-6f" x="222.070312"/>
     <use xlink:href="#DejaVuSans-6e" x="283.251953"/>
     <use xlink:href="#DejaVuSans-3a" x="346.630859"/>
     <use xlink:href="#DejaVuSans-20" x="380.322266"/>
     <use xlink:href="#DejaVuSans-35" x="412.109375"/>
     <use xlink:href="#DejaVuSans-30" x="475.732422"/>
     <use xlink:href="#DejaVuSans-32" x="539.355469"/>
     <use xlink:href="#DejaVuSans-20" x="602.978516"/>
     <use xlink:href="#DejaVuSans-28" x="634.765625"/>
     <use xlink:href="#DejaVuSans-32" x="673.779297"/>
     <use xlink:href="#DejaVuSans-35" x="737.402344"/>
     <use xlink:href="#DejaVuSans-2e" x="801.025391"/>
     <use xlink:href="#DejaVuSans-33" x="832.8125"/>
     <use xlink:href="#DejaVuSans-25" x="896.435547"/>
     <use xlink:href="#DejaVuSans-29" x="991.455078"/>
    </g>
   </g>
   <g id="patch_13">
    <path d="M 494.181225 254.956519 
Q 490.134515 255.312091 486.087804 255.667663 
" style="fill: none; stroke: #a2b6d4; stroke-linecap: round"/>
   </g>
   <g id="text_3">
    <g id="patch_14">
     <path d="M 500.220397 259.073967 
L 590.695397 259.073967 
Q 593.995397 259.073967 593.995397 255.773967 
L 593.995397 245.128029 
Q 593.995397 241.828029 590.695397 241.828029 
L 500.220397 241.828029 
Q 496.920397 241.828029 496.920397 245.128029 
L 496.920397 255.773967 
Q 496.920397 259.073967 500.220397 259.073967 
z
" style="fill: #ffffff; stroke: #a2b6d4; stroke-width: 1.5; stroke-linejoin: miter"/>
    </g>
    <!-- Go: 392 (19.8%) -->
    <g transform="translate(500.220397 253.48631) scale(0.11 -0.11)">
     <defs>
      <path id="DejaVuSans-47" d="M 3809 666 
L 3809 1919 
L 2778 1919 
L 2778 2438 
L 4434 2438 
L 4434 434 
Q 4069 175 3628 42 
Q 3188 -91 2688 -91 
Q 1594 -91 976 548 
Q 359 1188 359 2328 
Q 359 3472 976 4111 
Q 1594 4750 2688 4750 
Q 3144 4750 3555 4637 
Q 3966 4525 4313 4306 
L 4313 3634 
Q 3963 3931 3569 4081 
Q 3175 4231 2741 4231 
Q 1884 4231 1454 3753 
Q 1025 3275 1025 2328 
Q 1025 1384 1454 906 
Q 1884 428 2741 428 
Q 3075 428 3337 486 
Q 3600 544 3809 666 
z
" transform="scale(0.015625)"/>
      <path id="DejaVuSans-39" d="M 703 97 
L 703 672 
Q 941 559 1184 500 
Q 1428 441 1663 441 
Q 2288 441 2617 861 
Q 2947 1281 2994 2138 
Q 2813 1869 2534 1725 
Q 2256 1581 1919 1581 
Q 1219 1581 811 2004 
Q 403 2428 403 3163 
Q 403 3881 828 4315 
Q 1253 4750 1959 4750 
Q 2769 4750 3195 4129 
Q 3622 3509 3622 2328 
Q 3622 1225 3098 567 
Q 2575 -91 1691 -91 
Q 1453 -91 1209 -44 
Q 966 3 703 97 
z
M 1959 2075 
Q 2384 2075 2632 2365 
Q 2881 2656 2881 3163 
Q 2881 3666 2632 3958 
Q 2384 4250 1959 4250 
Q 1534 4250 1286 3958 
Q 1038 3666 1038 3163 
Q 1038 2656 1286 2365 
Q 1534 2075 1959 2075 
z
" transform="scale(0.015625)"/>
      <path id="DejaVuSans-38" d="M 2034 2216 
Q 1584 2216 1326 1975 
Q 1069 1734 1069 1313 
Q 1069 891 1326 650 
Q 1584 409 2034 409 
Q 2484 409 2743 651 
Q 3003 894 3003 1313 
Q 3003 1734 2745 1975 
Q 2488 2216 2034 2216 
z
M 1403 2484 
Q 997 2584 770 2862 
Q 544 3141 544 3541 
Q 544 4100 942 4425 
Q 1341 4750 2034 4750 
Q 2731 4750 3128 4425 
Q 3525 4100 3525 3541 
Q 3525 3141 3298 2862 
Q 3072 2584 2669 2484 
Q 3125 2378 3379 2068 
Q 3634 1759 3634 1313 
Q 3634 634 3220 271 
Q 2806 -91 2034 -91 
Q 1263 -91 848 271 
Q 434 634 434 1313 
Q 434 1759 690 2068 
Q 947 2378 1403 2484 
z
M 1172 3481 
Q 1172 3119 1398 2916 
Q 1625 2713 2034 2713 
Q 2441 2713 2670 2916 
Q 2900 3119 2900 3481 
Q 2900 3844 2670 4047 
Q 2441 4250 2034 4250 
Q 1625 4250 1398 4047 
Q 1172 3844 1172 3481 
z
" transform="scale(0.015625)"/>
     </defs>
     <use xlink:href="#DejaVuSans-47"/>
     <use xlink:href="#DejaVuSans-6f" x="77.490234"/>
     <use xlink:href="#DejaVuSans-3a" x="138.671875"/>
     <use xlink:href="#DejaVuSans-20" x="172.363281"/>
     <use xlink:href="#DejaVuSans-33" x="204.150391"/>
     <use xlink:href="#DejaVuSans-39" x="267.773438"/>
     <use xlink:href="#DejaVuSans-32" x="331.396484"/>
     <use xlink:href="#DejaVuSans-20" x="395.019531"/>
     <use xlink:href="#DejaVuSans-28" x="426.806641"/>
     <use xlink:href="#DejaVuSans-31" x="465.820312"/>
     <use xlink:href="#DejaVuSans-39" x="529.443359"/>
     <use xlink:href="#DejaVuSans-2e" x="593.066406"/>
     <use xlink:href="#DejaVuSans-38" x="624.853516"/>
     <use xlink:href="#DejaVuSans-25" x="688.476562"/>
     <use xlink:href="#DejaVuSans-29" x="783.496094"/>
    </g>
   </g>
   <g id="patch_15">
    <path d="M 371.406836 124.896428 
Q 358.348146 128.074709 345.289455 131.252991 
" style="fill: none; stroke: #fae49e; stroke-linecap: round"/>
   </g>
   <g id="text_4">
    <g id="patch_16">
     <path d="M 346.679934 123.673286 
L 477.043684 123.673286 
Q 480.343684 123.673286 480.343684 120.373286 
L 480.343684 109.727348 
Q 480.343684 106.427348 477.043684 106.427348 
L 346.679934 106.427348 
Q 343.379934 106.427348 343.379934 109.727348 
L 343.379934 120.373286 
Q 343.379934 123.673286 346.679934 123.673286 
z
" style="fill: #ffffff; stroke: #fae49e; stroke-width: 1.5; stroke-linejoin: miter"/>
    </g>
    <!-- JavaScript: 271 (13.7%) -->
    <g transform="translate(346.679934 118.08563) scale(0.11 -0.11)">
     <defs>
      <path id="DejaVuSans-53" d="M 3425 4513 
L 3425 3897 
Q 3066 4069 2747 4153 
Q 2428 4238 2131 4238 
Q 1616 4238 1336 4038 
Q 1056 3838 1056 3469 
Q 1056 3159 1242 3001 
Q 1428 2844 1947 2747 
L 2328 2669 
Q 3034 2534 3370 2195 
Q 3706 1856 3706 1288 
Q 3706 609 3251 259 
Q 2797 -91 1919 -91 
Q 1588 -91 1214 -16 
Q 841 59 441 206 
L 441 856 
Q 825 641 1194 531 
Q 1563 422 1919 422 
Q 2459 422 2753 634 
Q 3047 847 3047 1241 
Q 3047 1584 2836 1778 
Q 2625 1972 2144 2069 
L 1759 2144 
Q 1053 2284 737 2584 
Q 422 2884 422 3419 
Q 422 4038 858 4394 
Q 1294 4750 2059 4750 
Q 2388 4750 2728 4690 
Q 3069 4631 3425 4513 
z
" transform="scale(0.015625)"/>
      <path id="DejaVuSans-63" d="M 3122 3366 
L 3122 2828 
Q 2878 2963 2633 3030 
Q 2388 3097 2138 3097 
Q 1578 3097 1268 2742 
Q 959 2388 959 1747 
Q 959 1106 1268 751 
Q 1578 397 2138 397 
Q 2388 397 2633 464 
Q 2878 531 3122 666 
L 3122 134 
Q 2881 22 2623 -34 
Q 2366 -91 2075 -91 
Q 1284 -91 818 406 
Q 353 903 353 1747 
Q 353 2603 823 3093 
Q 1294 3584 2113 3584 
Q 2378 3584 2631 3529 
Q 2884 3475 3122 3366 
z
" transform="scale(0.015625)"/>
      <path id="DejaVuSans-72" d="M 2631 2963 
Q 2534 3019 2420 3045 
Q 2306 3072 2169 3072 
Q 1681 3072 1420 2755 
Q 1159 2438 1159 1844 
L 1159 0 
L 581 0 
L 581 3500 
L 1159 3500 
L 1159 2956 
Q 1341 3275 1631 3429 
Q 1922 3584 2338 3584 
Q 2397 3584 2469 3576 
Q 2541 3569 2628 3553 
L 2631 2963 
z
" transform="scale(0.015625)"/>
      <path id="DejaVuSans-69" d="M 603 3500 
L 1178 3500 
L 1178 0 
L 603 0 
L 603 3500 
z
M 603 4863 
L 1178 4863 
L 1178 4134 
L 603 4134 
L 603 4863 
z
" transform="scale(0.015625)"/>
      <path id="DejaVuSans-70" d="M 1159 525 
L 1159 -1331 
L 581 -1331 
L 581 3500 
L 1159 3500 
L 1159 2969 
Q 1341 3281 1617 3432 
Q 1894 3584 2278 3584 
Q 2916 3584 3314 3078 
Q 3713 2572 3713 1747 
Q 3713 922 3314 415 
Q 2916 -91 2278 -91 
Q 1894 -91 1617 61 
Q 1341 213 1159 525 
z
M 3116 1747 
Q 3116 2381 2855 2742 
Q 2594 3103 2138 3103 
Q 1681 3103 1420 2742 
Q 1159 2381 1159 1747 
Q 1159 1113 1420 752 
Q 1681 391 2138 391 
Q 2594 391 2855 752 
Q 3116 1113 3116 1747 
z
" transform="scale(0.015625)"/>
      <path id="DejaVuSans-37" d="M 525 4666 
L 3525 4666 
L 3525 4397 
L 1831 0 
L 1172 0 
L 2766 4134 
L 525 4134 
L 525 4666 
z
" transform="scale(0.015625)"/>
     </defs>
     <use xlink:href="#DejaVuSans-4a"/>
     <use xlink:href="#DejaVuSans-61" x="29.492188"/>
     <use xlink:href="#DejaVuSans-76" x="90.771484"/>
     <use xlink:href="#DejaVuSans-61" x="149.951172"/>
     <use xlink:href="#DejaVuSans-53" x="211.230469"/>
     <use xlink:href="#DejaVuSans-63" x="274.707031"/>
     <use xlink:href="#DejaVuSans-72" x="329.6875"/>
     <use xlink:href="#DejaVuSans-69" x="370.800781"/>
     <use xlink:href="#DejaVuSans-70" x="398.583984"/>
     <use xlink:href="#DejaVuSans-74" x="462.060547"/>
     <use xlink:href="#DejaVuSans-3a" x="501.269531"/>
     <use xlink:href="#DejaVuSans-20" x="534.960938"/>
     <use xlink:href="#DejaVuSans-32" x="566.748047"/>
     <use xlink:href="#DejaVuSans-37" x="630.371094"/>
     <use xlink:href="#DejaVuSans-31" x="693.994141"/>
     <use xlink:href="#DejaVuSans-20" x="757.617188"/>
     <use xlink:href="#DejaVuSans-28" x="789.404297"/>
     <use xlink:href="#DejaVuSans-31" x="828.417969"/>
     <use xlink:href="#DejaVuSans-33" x="892.041016"/>
     <use xlink:href="#DejaVuSans-2e" x="955.664062"/>
     <use xlink:href="#DejaVuSans-37" x="987.451172"/>
     <use xlink:href="#DejaVuSans-25" x="1051.074219"/>
     <use xlink:href="#DejaVuSans-29" x="1146.09375"/>
    </g>
   </g>
   <g id="patch_17">
    <path d="M 203.563711 143.298275 
Q 211.668681 145.632185 219.773651 147.966096 
" style="fill: none; stroke: #cfc3e6; stroke-linecap: round"/>
   </g>
   <g id="text_5">
    <g id="patch_18">
     <path d="M 124.213426 141.995166 
L 213.973426 141.995166 
Q 217.273426 141.995166 217.273426 138.695166 
L 217.273426 128.049229 
Q 217.273426 124.749229 213.973426 124.749229 
L 124.213426 124.749229 
Q 120.913426 124.749229 120.913426 128.049229 
L 120.913426 138.695166 
Q 120.913426 141.995166 124.213426 141.995166 
z
" style="fill: #ffffff; stroke: #cfc3e6; stroke-width: 1.5; stroke-linejoin: miter"/>
    </g>
    <!-- PHP: 151 (7.6%) -->
    <g transform="translate(124.213426 136.40751) scale(0.11 -0.11)">
     <defs>
      <path id="DejaVuSans-48" d="M 628 4666 
L 1259 4666 
L 1259 2753 
L 3553 2753 
L 3553 4666 
L 4184 4666 
L 4184 0 
L 3553 0 
L 3553 2222 
L 1259 2222 
L 1259 0 
L 628 0 
L 628 4666 
z
" transform="scale(0.015625)"/>
     </defs>
     <use xlink:href="#DejaVuSans-50"/>
     <use xlink:href="#DejaVuSans-48" x="60.302734"/>
     <use xlink:href="#DejaVuSans-50" x="135.498047"/>
     <use xlink:href="#DejaVuSans-3a" x="195.800781"/>
     <use xlink:href="#DejaVuSans-20" x="229.492188"/>
     <use xlink:href="#DejaVuSans-31" x="261.279297"/>
     <use xlink:href="#DejaVuSans-35" x="324.902344"/>
     <use xlink:href="#DejaVuSans-31" x="388.525391"/>
     <use xlink:href="#DejaVuSans-20" x="452.148438"/>
     <use xlink:href="#DejaVuSans-28" x="483.935547"/>
     <use xlink:href="#DejaVuSans-37" x="522.949219"/>
     <use xlink:href="#DejaVuSans-2e" x="586.572266"/>
     <use xlink:href="#DejaVuSans-36" x="618.359375"/>
     <use xlink:href="#DejaVuSans-25" x="681.982422"/>
     <use xlink:href="#DejaVuSans-29" x="777.001953"/>
    </g>
   </g>
   <g id="patch_19">
    <path d="M 163.493166 181.579715 
Q 167.554773 182.449757 171.61638 183.3198 
" style="fill: none; stroke: #9daabf; stroke-linecap: round"/>
   </g>
   <g id="text_6">
    <g id="patch_20">
     <path d="M 74.131274 180.414964 
L 161.471274 180.414964 
Q 164.771274 180.414964 164.771274 177.114964 
L 164.771274 166.469027 
Q 164.771274 163.169027 161.471274 163.169027 
L 74.131274 163.169027 
Q 70.831274 163.169027 70.831274 166.469027 
L 70.831274 177.114964 
Q 70.831274 180.414964 74.131274 180.414964 
z
" style="fill: #ffffff; stroke: #9daabf; stroke-width: 1.5; stroke-linejoin: miter"/>
    </g>
    <!-- C++: 51 (2.6%) -->
    <g transform="translate(74.131274 174.827308) scale(0.11 -0.11)">
     <defs>
      <path id="DejaVuSans-43" d="M 4122 4306 
L 4122 3641 
Q 3803 3938 3442 4084 
Q 3081 4231 2675 4231 
Q 1875 4231 1450 3742 
Q 1025 3253 1025 2328 
Q 1025 1406 1450 917 
Q 1875 428 2675 428 
Q 3081 428 3442 575 
Q 3803 722 4122 1019 
L 4122 359 
Q 3791 134 3420 21 
Q 3050 -91 2638 -91 
Q 1578 -91 968 557 
Q 359 1206 359 2328 
Q 359 3453 968 4101 
Q 1578 4750 2638 4750 
Q 3056 4750 3426 4639 
Q 3797 4528 4122 4306 
z
" transform="scale(0.015625)"/>
      <path id="DejaVuSans-2b" d="M 2944 4013 
L 2944 2272 
L 4684 2272 
L 4684 1741 
L 2944 1741 
L 2944 0 
L 2419 0 
L 2419 1741 
L 678 1741 
L 678 2272 
L 2419 2272 
L 2419 4013 
L 2944 4013 
z
" transform="scale(0.015625)"/>
     </defs>
     <use xlink:href="#DejaVuSans-43"/>
     <use xlink:href="#DejaVuSans-2b" x="69.824219"/>
     <use xlink:href="#DejaVuSans-2b" x="153.613281"/>
     <use xlink:href="#DejaVuSans-3a" x="237.402344"/>
     <use xlink:href="#DejaVuSans-20" x="271.09375"/>
     <use xlink:href="#DejaVuSans-35" x="302.880859"/>
     <use xlink:href="#DejaVuSans-31" x="366.503906"/>
     <use xlink:href="#DejaVuSans-20" x="430.126953"/>
     <use xlink:href="#DejaVuSans-28" x="461.914062"/>
     <use xlink:href="#DejaVuSans-32" x="500.927734"/>
     <use xlink:href="#DejaVuSans-2e" x="564.550781"/>
     <use xlink:href="#DejaVuSans-36" x="596.337891"/>
     <use xlink:href="#DejaVuSans-25" x="659.960938"/>
     <use xlink:href="#DejaVuSans-29" x="754.980469"/>
    </g>
   </g>
   <g id="text_7">
    <!-- The distribution of questions for -->
    <g transform="translate(178.358133 66.913831) scale(0.14 -0.14)">
     <defs>
      <path id="DejaVuSans-Bold-54" d="M 31 4666 
L 4331 4666 
L 4331 3756 
L 2784 3756 
L 2784 0 
L 1581 0 
L 1581 3756 
L 31 3756 
L 31 4666 
z
" transform="scale(0.015625)"/>
      <path id="DejaVuSans-Bold-68" d="M 4056 2131 
L 4056 0 
L 2931 0 
L 2931 347 
L 2931 1625 
Q 2931 2084 2911 2256 
Q 2891 2428 2841 2509 
Q 2775 2619 2662 2680 
Q 2550 2741 2406 2741 
Q 2056 2741 1856 2470 
Q 1656 2200 1656 1722 
L 1656 0 
L 538 0 
L 538 4863 
L 1656 4863 
L 1656 2988 
Q 1909 3294 2193 3439 
Q 2478 3584 2822 3584 
Q 3428 3584 3742 3212 
Q 4056 2841 4056 2131 
z
" transform="scale(0.015625)"/>
      <path id="DejaVuSans-Bold-65" d="M 4031 1759 
L 4031 1441 
L 1416 1441 
Q 1456 1047 1700 850 
Q 1944 653 2381 653 
Q 2734 653 3104 758 
Q 3475 863 3866 1075 
L 3866 213 
Q 3469 63 3072 -14 
Q 2675 -91 2278 -91 
Q 1328 -91 801 392 
Q 275 875 275 1747 
Q 275 2603 792 3093 
Q 1309 3584 2216 3584 
Q 3041 3584 3536 3087 
Q 4031 2591 4031 1759 
z
M 2881 2131 
Q 2881 2450 2695 2645 
Q 2509 2841 2209 2841 
Q 1884 2841 1681 2658 
Q 1478 2475 1428 2131 
L 2881 2131 
z
" transform="scale(0.015625)"/>
      <path id="DejaVuSans-Bold-20" transform="scale(0.015625)"/>
      <path id="DejaVuSans-Bold-64" d="M 2919 2988 
L 2919 4863 
L 4044 4863 
L 4044 0 
L 2919 0 
L 2919 506 
Q 2688 197 2409 53 
Q 2131 -91 1766 -91 
Q 1119 -91 703 423 
Q 288 938 288 1747 
Q 288 2556 703 3070 
Q 1119 3584 1766 3584 
Q 2128 3584 2408 3439 
Q 2688 3294 2919 2988 
z
M 2181 722 
Q 2541 722 2730 984 
Q 2919 1247 2919 1747 
Q 2919 2247 2730 2509 
Q 2541 2772 2181 2772 
Q 1825 2772 1636 2509 
Q 1447 2247 1447 1747 
Q 1447 1247 1636 984 
Q 1825 722 2181 722 
z
" transform="scale(0.015625)"/>
      <path id="DejaVuSans-Bold-69" d="M 538 3500 
L 1656 3500 
L 1656 0 
L 538 0 
L 538 3500 
z
M 538 4863 
L 1656 4863 
L 1656 3950 
L 538 3950 
L 538 4863 
z
" transform="scale(0.015625)"/>
      <path id="DejaVuSans-Bold-73" d="M 3272 3391 
L 3272 2541 
Q 2913 2691 2578 2766 
Q 2244 2841 1947 2841 
Q 1628 2841 1473 2761 
Q 1319 2681 1319 2516 
Q 1319 2381 1436 2309 
Q 1553 2238 1856 2203 
L 2053 2175 
Q 2913 2066 3209 1816 
Q 3506 1566 3506 1031 
Q 3506 472 3093 190 
Q 2681 -91 1863 -91 
Q 1516 -91 1145 -36 
Q 775 19 384 128 
L 384 978 
Q 719 816 1070 734 
Q 1422 653 1784 653 
Q 2113 653 2278 743 
Q 2444 834 2444 1013 
Q 2444 1163 2330 1236 
Q 2216 1309 1875 1350 
L 1678 1375 
Q 931 1469 631 1722 
Q 331 1975 331 2491 
Q 331 3047 712 3315 
Q 1094 3584 1881 3584 
Q 2191 3584 2531 3537 
Q 2872 3491 3272 3391 
z
" transform="scale(0.015625)"/>
      <path id="DejaVuSans-Bold-74" d="M 1759 4494 
L 1759 3500 
L 2913 3500 
L 2913 2700 
L 1759 2700 
L 1759 1216 
Q 1759 972 1856 886 
Q 1953 800 2241 800 
L 2816 800 
L 2816 0 
L 1856 0 
Q 1194 0 917 276 
Q 641 553 641 1216 
L 641 2700 
L 84 2700 
L 84 3500 
L 641 3500 
L 641 4494 
L 1759 4494 
z
" transform="scale(0.015625)"/>
      <path id="DejaVuSans-Bold-72" d="M 3138 2547 
Q 2991 2616 2845 2648 
Q 2700 2681 2553 2681 
Q 2122 2681 1889 2404 
Q 1656 2128 1656 1613 
L 1656 0 
L 538 0 
L 538 3500 
L 1656 3500 
L 1656 2925 
Q 1872 3269 2151 3426 
Q 2431 3584 2822 3584 
Q 2878 3584 2943 3579 
Q 3009 3575 3134 3559 
L 3138 2547 
z
" transform="scale(0.015625)"/>
      <path id="DejaVuSans-Bold-62" d="M 2400 722 
Q 2759 722 2948 984 
Q 3138 1247 3138 1747 
Q 3138 2247 2948 2509 
Q 2759 2772 2400 2772 
Q 2041 2772 1848 2508 
Q 1656 2244 1656 1747 
Q 1656 1250 1848 986 
Q 2041 722 2400 722 
z
M 1656 2988 
Q 1888 3294 2169 3439 
Q 2450 3584 2816 3584 
Q 3463 3584 3878 3070 
Q 4294 2556 4294 1747 
Q 4294 938 3878 423 
Q 3463 -91 2816 -91 
Q 2450 -91 2169 54 
Q 1888 200 1656 506 
L 1656 0 
L 538 0 
L 538 4863 
L 1656 4863 
L 1656 2988 
z
" transform="scale(0.015625)"/>
      <path id="DejaVuSans-Bold-75" d="M 500 1363 
L 500 3500 
L 1625 3500 
L 1625 3150 
Q 1625 2866 1622 2436 
Q 1619 2006 1619 1863 
Q 1619 1441 1641 1255 
Q 1663 1069 1716 984 
Q 1784 875 1895 815 
Q 2006 756 2150 756 
Q 2500 756 2700 1025 
Q 2900 1294 2900 1772 
L 2900 3500 
L 4019 3500 
L 4019 0 
L 2900 0 
L 2900 506 
Q 2647 200 2364 54 
Q 2081 -91 1741 -91 
Q 1134 -91 817 281 
Q 500 653 500 1363 
z
" transform="scale(0.015625)"/>
      <path id="DejaVuSans-Bold-6f" d="M 2203 2784 
Q 1831 2784 1636 2517 
Q 1441 2250 1441 1747 
Q 1441 1244 1636 976 
Q 1831 709 2203 709 
Q 2569 709 2762 976 
Q 2956 1244 2956 1747 
Q 2956 2250 2762 2517 
Q 2569 2784 2203 2784 
z
M 2203 3584 
Q 3106 3584 3614 3096 
Q 4122 2609 4122 1747 
Q 4122 884 3614 396 
Q 3106 -91 2203 -91 
Q 1297 -91 786 396 
Q 275 884 275 1747 
Q 275 2609 786 3096 
Q 1297 3584 2203 3584 
z
" transform="scale(0.015625)"/>
      <path id="DejaVuSans-Bold-6e" d="M 4056 2131 
L 4056 0 
L 2931 0 
L 2931 347 
L 2931 1631 
Q 2931 2084 2911 2256 
Q 2891 2428 2841 2509 
Q 2775 2619 2662 2680 
Q 2550 2741 2406 2741 
Q 2056 2741 1856 2470 
Q 1656 2200 1656 1722 
L 1656 0 
L 538 0 
L 538 3500 
L 1656 3500 
L 1656 2988 
Q 1909 3294 2193 3439 
Q 2478 3584 2822 3584 
Q 3428 3584 3742 3212 
Q 4056 2841 4056 2131 
z
" transform="scale(0.015625)"/>
      <path id="DejaVuSans-Bold-66" d="M 2841 4863 
L 2841 4128 
L 2222 4128 
Q 1984 4128 1890 4042 
Q 1797 3956 1797 3744 
L 1797 3500 
L 2753 3500 
L 2753 2700 
L 1797 2700 
L 1797 0 
L 678 0 
L 678 2700 
L 122 2700 
L 122 3500 
L 678 3500 
L 678 3744 
Q 678 4316 997 4589 
Q 1316 4863 1984 4863 
L 2841 4863 
z
" transform="scale(0.015625)"/>
      <path id="DejaVuSans-Bold-71" d="M 2181 2772 
Q 1825 2772 1636 2509 
Q 1447 2247 1447 1747 
Q 1447 1247 1636 984 
Q 1825 722 2181 722 
Q 2541 722 2730 984 
Q 2919 1247 2919 1747 
Q 2919 2247 2730 2509 
Q 2541 2772 2181 2772 
z
M 2919 506 
Q 2688 197 2409 53 
Q 2131 -91 1766 -91 
Q 1119 -91 703 423 
Q 288 938 288 1747 
Q 288 2556 703 3067 
Q 1119 3578 1766 3578 
Q 2131 3578 2409 3434 
Q 2688 3291 2919 2981 
L 2919 3500 
L 4044 3500 
L 4044 -1331 
L 2919 -1331 
L 2919 506 
z
" transform="scale(0.015625)"/>
     </defs>
     <use xlink:href="#DejaVuSans-Bold-54"/>
     <use xlink:href="#DejaVuSans-Bold-68" x="68.212891"/>
     <use xlink:href="#DejaVuSans-Bold-65" x="139.404297"/>
     <use xlink:href="#DejaVuSans-Bold-20" x="207.226562"/>
     <use xlink:href="#DejaVuSans-Bold-64" x="242.041016"/>
     <use xlink:href="#DejaVuSans-Bold-69" x="313.623047"/>
     <use xlink:href="#DejaVuSans-Bold-73" x="347.900391"/>
     <use xlink:href="#DejaVuSans-Bold-74" x="407.421875"/>
     <use xlink:href="#DejaVuSans-Bold-72" x="455.224609"/>
     <use xlink:href="#DejaVuSans-Bold-69" x="504.541016"/>
     <use xlink:href="#DejaVuSans-Bold-62" x="538.818359"/>
     <use xlink:href="#DejaVuSans-Bold-75" x="610.400391"/>
     <use xlink:href="#DejaVuSans-Bold-74" x="681.591797"/>
     <use xlink:href="#DejaVuSans-Bold-69" x="729.394531"/>
     <use xlink:href="#DejaVuSans-Bold-6f" x="763.671875"/>
     <use xlink:href="#DejaVuSans-Bold-6e" x="832.373047"/>
     <use xlink:href="#DejaVuSans-Bold-20" x="903.564453"/>
     <use xlink:href="#DejaVuSans-Bold-6f" x="938.378906"/>
     <use xlink:href="#DejaVuSans-Bold-66" x="1007.080078"/>
     <use xlink:href="#DejaVuSans-Bold-20" x="1050.585938"/>
     <use xlink:href="#DejaVuSans-Bold-71" x="1085.400391"/>
     <use xlink:href="#DejaVuSans-Bold-75" x="1156.982422"/>
     <use xlink:href="#DejaVuSans-Bold-65" x="1228.173828"/>
     <use xlink:href="#DejaVuSans-Bold-73" x="1295.996094"/>
     <use xlink:href="#DejaVuSans-Bold-74" x="1355.517578"/>
     <use xlink:href="#DejaVuSans-Bold-69" x="1403.320312"/>
     <use xlink:href="#DejaVuSans-Bold-6f" x="1437.597656"/>
     <use xlink:href="#DejaVuSans-Bold-6e" x="1506.298828"/>
     <use xlink:href="#DejaVuSans-Bold-73" x="1577.490234"/>
     <use xlink:href="#DejaVuSans-Bold-20" x="1637.011719"/>
     <use xlink:href="#DejaVuSans-Bold-66" x="1671.826172"/>
     <use xlink:href="#DejaVuSans-Bold-6f" x="1715.332031"/>
     <use xlink:href="#DejaVuSans-Bold-72" x="1784.033203"/>
    </g>
    <!-- programming language interactions -->
    <g transform="translate(164.287039 82.590769) scale(0.14 -0.14)">
     <defs>
      <path id="DejaVuSans-Bold-70" d="M 1656 506 
L 1656 -1331 
L 538 -1331 
L 538 3500 
L 1656 3500 
L 1656 2988 
Q 1888 3294 2169 3439 
Q 2450 3584 2816 3584 
Q 3463 3584 3878 3070 
Q 4294 2556 4294 1747 
Q 4294 938 3878 423 
Q 3463 -91 2816 -91 
Q 2450 -91 2169 54 
Q 1888 200 1656 506 
z
M 2400 2772 
Q 2041 2772 1848 2508 
Q 1656 2244 1656 1747 
Q 1656 1250 1848 986 
Q 2041 722 2400 722 
Q 2759 722 2948 984 
Q 3138 1247 3138 1747 
Q 3138 2247 2948 2509 
Q 2759 2772 2400 2772 
z
" transform="scale(0.015625)"/>
      <path id="DejaVuSans-Bold-67" d="M 2919 594 
Q 2688 288 2409 144 
Q 2131 0 1766 0 
Q 1125 0 706 504 
Q 288 1009 288 1791 
Q 288 2575 706 3076 
Q 1125 3578 1766 3578 
Q 2131 3578 2409 3434 
Q 2688 3291 2919 2981 
L 2919 3500 
L 4044 3500 
L 4044 353 
Q 4044 -491 3511 -936 
Q 2978 -1381 1966 -1381 
Q 1638 -1381 1331 -1331 
Q 1025 -1281 716 -1178 
L 716 -306 
Q 1009 -475 1290 -558 
Q 1572 -641 1856 -641 
Q 2406 -641 2662 -400 
Q 2919 -159 2919 353 
L 2919 594 
z
M 2181 2772 
Q 1834 2772 1640 2515 
Q 1447 2259 1447 1791 
Q 1447 1309 1634 1061 
Q 1822 813 2181 813 
Q 2531 813 2725 1069 
Q 2919 1325 2919 1791 
Q 2919 2259 2725 2515 
Q 2531 2772 2181 2772 
z
" transform="scale(0.015625)"/>
      <path id="DejaVuSans-Bold-61" d="M 2106 1575 
Q 1756 1575 1579 1456 
Q 1403 1338 1403 1106 
Q 1403 894 1545 773 
Q 1688 653 1941 653 
Q 2256 653 2472 879 
Q 2688 1106 2688 1447 
L 2688 1575 
L 2106 1575 
z
M 3816 1997 
L 3816 0 
L 2688 0 
L 2688 519 
Q 2463 200 2181 54 
Q 1900 -91 1497 -91 
Q 953 -91 614 226 
Q 275 544 275 1050 
Q 275 1666 698 1953 
Q 1122 2241 2028 2241 
L 2688 2241 
L 2688 2328 
Q 2688 2594 2478 2717 
Q 2269 2841 1825 2841 
Q 1466 2841 1156 2769 
Q 847 2697 581 2553 
L 581 3406 
Q 941 3494 1303 3539 
Q 1666 3584 2028 3584 
Q 2975 3584 3395 3211 
Q 3816 2838 3816 1997 
z
" transform="scale(0.015625)"/>
      <path id="DejaVuSans-Bold-6d" d="M 3781 2919 
Q 3994 3244 4286 3414 
Q 4578 3584 4928 3584 
Q 5531 3584 5847 3212 
Q 6163 2841 6163 2131 
L 6163 0 
L 5038 0 
L 5038 1825 
Q 5041 1866 5042 1909 
Q 5044 1953 5044 2034 
Q 5044 2406 4934 2573 
Q 4825 2741 4581 2741 
Q 4263 2741 4089 2478 
Q 3916 2216 3909 1719 
L 3909 0 
L 2784 0 
L 2784 1825 
Q 2784 2406 2684 2573 
Q 2584 2741 2328 2741 
Q 2006 2741 1831 2477 
Q 1656 2213 1656 1722 
L 1656 0 
L 531 0 
L 531 3500 
L 1656 3500 
L 1656 2988 
Q 1863 3284 2130 3434 
Q 2397 3584 2719 3584 
Q 3081 3584 3359 3409 
Q 3638 3234 3781 2919 
z
" transform="scale(0.015625)"/>
      <path id="DejaVuSans-Bold-6c" d="M 538 4863 
L 1656 4863 
L 1656 0 
L 538 0 
L 538 4863 
z
" transform="scale(0.015625)"/>
      <path id="DejaVuSans-Bold-63" d="M 3366 3391 
L 3366 2478 
Q 3138 2634 2908 2709 
Q 2678 2784 2431 2784 
Q 1963 2784 1702 2511 
Q 1441 2238 1441 1747 
Q 1441 1256 1702 982 
Q 1963 709 2431 709 
Q 2694 709 2930 787 
Q 3166 866 3366 1019 
L 3366 103 
Q 3103 6 2833 -42 
Q 2563 -91 2291 -91 
Q 1344 -91 809 395 
Q 275 881 275 1747 
Q 275 2613 809 3098 
Q 1344 3584 2291 3584 
Q 2566 3584 2833 3536 
Q 3100 3488 3366 3391 
z
" transform="scale(0.015625)"/>
     </defs>
     <use xlink:href="#DejaVuSans-Bold-70"/>
     <use xlink:href="#DejaVuSans-Bold-72" x="71.582031"/>
     <use xlink:href="#DejaVuSans-Bold-6f" x="120.898438"/>
     <use xlink:href="#DejaVuSans-Bold-67" x="189.599609"/>
     <use xlink:href="#DejaVuSans-Bold-72" x="261.181641"/>
     <use xlink:href="#DejaVuSans-Bold-61" x="310.498047"/>
     <use xlink:href="#DejaVuSans-Bold-6d" x="377.978516"/>
     <use xlink:href="#DejaVuSans-Bold-6d" x="482.177734"/>
     <use xlink:href="#DejaVuSans-Bold-69" x="586.376953"/>
     <use xlink:href="#DejaVuSans-Bold-6e" x="620.654297"/>
     <use xlink:href="#DejaVuSans-Bold-67" x="691.845703"/>
     <use xlink:href="#DejaVuSans-Bold-20" x="763.427734"/>
     <use xlink:href="#DejaVuSans-Bold-6c" x="798.242188"/>
     <use xlink:href="#DejaVuSans-Bold-61" x="832.519531"/>
     <use xlink:href="#DejaVuSans-Bold-6e" x="900"/>
     <use xlink:href="#DejaVuSans-Bold-67" x="971.191406"/>
     <use xlink:href="#DejaVuSans-Bold-75" x="1042.773438"/>
     <use xlink:href="#DejaVuSans-Bold-61" x="1113.964844"/>
     <use xlink:href="#DejaVuSans-Bold-67" x="1181.445312"/>
     <use xlink:href="#DejaVuSans-Bold-65" x="1253.027344"/>
     <use xlink:href="#DejaVuSans-Bold-20" x="1320.849609"/>
     <use xlink:href="#DejaVuSans-Bold-69" x="1355.664062"/>
     <use xlink:href="#DejaVuSans-Bold-6e" x="1389.941406"/>
     <use xlink:href="#DejaVuSans-Bold-74" x="1461.132812"/>
     <use xlink:href="#DejaVuSans-Bold-65" x="1508.935547"/>
     <use xlink:href="#DejaVuSans-Bold-72" x="1576.757812"/>
     <use xlink:href="#DejaVuSans-Bold-61" x="1626.074219"/>
     <use xlink:href="#DejaVuSans-Bold-63" x="1693.554688"/>
     <use xlink:href="#DejaVuSans-Bold-74" x="1752.832031"/>
     <use xlink:href="#DejaVuSans-Bold-69" x="1800.634766"/>
     <use xlink:href="#DejaVuSans-Bold-6f" x="1834.912109"/>
     <use xlink:href="#DejaVuSans-Bold-6e" x="1903.613281"/>
     <use xlink:href="#DejaVuSans-Bold-73" x="1974.804688"/>
    </g>
   </g>
  </g>
  <g id="axes_2">
   <g id="patch_21">
    <path d="M 708.720795 173.055849 
C 688.314818 197.374746 673.384685 225.806298 664.948867 256.41103 
C 656.513048 287.015761 654.767825 319.081572 659.832248 350.421072 
C 664.896671 381.760572 676.652904 411.644565 694.298987 438.034494 
C 711.94507 464.424424 735.070421 486.706259 762.097529 503.360029 
C 789.124637 520.0138 819.424645 530.652012 850.930617 534.548973 
C 882.43659 538.445934 914.415459 535.510972 944.685763 525.944295 
C 974.956068 516.377619 1002.81349 500.401823 1026.357717 479.106706 
C 1049.901945 457.81159 1068.585159 431.69264 1081.132873 402.531579 
L 878.067427 315.154545 
z
" style="fill: #f6b3b3; stroke: #ffffff; stroke-width: 3; stroke-linejoin: miter"/>
   </g>
   <g id="patch_22">
    <path d="M 1081.132873 402.531579 
C 1102.100327 353.802923 1104.843263 299.118419 1088.857173 248.536199 
C 1072.871084 197.953979 1039.200091 154.777795 994.037307 126.949051 
C 948.874524 99.120307 895.169734 88.456622 842.80087 96.919371 
C 790.432006 105.38212 742.819514 132.418563 708.720768 173.055881 
L 878.067427 315.154545 
z
" style="fill: #c1d9f7; stroke: #ffffff; stroke-width: 3; stroke-linejoin: miter"/>
   </g>
   <g id="patch_23">
    <path d="M 878.067427 408.682607 
C 902.871359 408.682607 926.662725 398.827901 944.201754 381.288872 
C 961.740782 363.749844 971.595489 339.958477 971.595489 315.154545 
C 971.595489 290.350614 961.740782 266.559247 944.201754 249.020219 
C 926.662725 231.48119 902.871359 221.626484 878.067427 221.626484 
C 853.263495 221.626484 829.472129 231.48119 811.9331 249.020219 
C 794.394072 266.559247 784.539365 290.350614 784.539365 315.154545 
C 784.539365 339.958477 794.394072 363.749844 811.9331 381.288872 
C 829.472129 398.827901 853.263495 408.682607 878.067427 408.682607 
z
" clip-path="url(#p88a3ea046d)" style="fill: #ffffff"/>
   </g>
   <g id="matplotlib.axis_3"/>
   <g id="matplotlib.axis_4"/>
   <g id="patch_24">
    <path d="M 755.976065 501.137703 
Q 758.096758 501.907596 760.21745 502.677489 
" style="fill: none; stroke: #f6b3b3; stroke-linecap: round"/>
   </g>
   <g id="text_8">
    <g id="patch_25">
     <path d="M 610.97487 499.705653 
L 833.46362 499.705653 
Q 838.96362 499.705653 838.96362 494.205653 
L 838.96362 483.559715 
Q 838.96362 478.059715 833.46362 478.059715 
L 610.97487 478.059715 
Q 605.47487 478.059715 605.47487 483.559715 
L 605.47487 494.205653 
Q 605.47487 499.705653 610.97487 499.705653 
z
" style="fill: #ffffff; stroke: #f6b3b3; stroke-width: 1.5; stroke-linejoin: miter"/>
    </g>
    <!-- C/C++ - Python (Python.h): 353 (54.6%) -->
    <g transform="translate(610.97487 491.917997) scale(0.11 -0.11)">
     <defs>
      <path id="DejaVuSans-2f" d="M 1625 4666 
L 2156 4666 
L 531 -594 
L 0 -594 
L 1625 4666 
z
" transform="scale(0.015625)"/>
      <path id="DejaVuSans-2d" d="M 313 2009 
L 1997 2009 
L 1997 1497 
L 313 1497 
L 313 2009 
z
" transform="scale(0.015625)"/>
      <path id="DejaVuSans-34" d="M 2419 4116 
L 825 1625 
L 2419 1625 
L 2419 4116 
z
M 2253 4666 
L 3047 4666 
L 3047 1625 
L 3713 1625 
L 3713 1100 
L 3047 1100 
L 3047 0 
L 2419 0 
L 2419 1100 
L 313 1100 
L 313 1709 
L 2253 4666 
z
" transform="scale(0.015625)"/>
     </defs>
     <use xlink:href="#DejaVuSans-43"/>
     <use xlink:href="#DejaVuSans-2f" x="69.824219"/>
     <use xlink:href="#DejaVuSans-43" x="103.515625"/>
     <use xlink:href="#DejaVuSans-2b" x="173.339844"/>
     <use xlink:href="#DejaVuSans-2b" x="257.128906"/>
     <use xlink:href="#DejaVuSans-20" x="340.917969"/>
     <use xlink:href="#DejaVuSans-2d" x="372.705078"/>
     <use xlink:href="#DejaVuSans-20" x="408.789062"/>
     <use xlink:href="#DejaVuSans-50" x="440.576172"/>
     <use xlink:href="#DejaVuSans-79" x="500.878906"/>
     <use xlink:href="#DejaVuSans-74" x="560.058594"/>
     <use xlink:href="#DejaVuSans-68" x="599.267578"/>
     <use xlink:href="#DejaVuSans-6f" x="662.646484"/>
     <use xlink:href="#DejaVuSans-6e" x="723.828125"/>
     <use xlink:href="#DejaVuSans-20" x="787.207031"/>
     <use xlink:href="#DejaVuSans-28" x="818.994141"/>
     <use xlink:href="#DejaVuSans-50" x="858.007812"/>
     <use xlink:href="#DejaVuSans-79" x="918.310547"/>
     <use xlink:href="#DejaVuSans-74" x="977.490234"/>
     <use xlink:href="#DejaVuSans-68" x="1016.699219"/>
     <use xlink:href="#DejaVuSans-6f" x="1080.078125"/>
     <use xlink:href="#DejaVuSans-6e" x="1141.259766"/>
     <use xlink:href="#DejaVuSans-2e" x="1204.638672"/>
     <use xlink:href="#DejaVuSans-68" x="1236.425781"/>
     <use xlink:href="#DejaVuSans-29" x="1299.804688"/>
     <use xlink:href="#DejaVuSans-3a" x="1338.818359"/>
     <use xlink:href="#DejaVuSans-20" x="1372.509766"/>
     <use xlink:href="#DejaVuSans-33" x="1404.296875"/>
     <use xlink:href="#DejaVuSans-35" x="1467.919922"/>
     <use xlink:href="#DejaVuSans-33" x="1531.542969"/>
     <use xlink:href="#DejaVuSans-20" x="1595.166016"/>
     <use xlink:href="#DejaVuSans-28" x="1626.953125"/>
     <use xlink:href="#DejaVuSans-35" x="1665.966797"/>
     <use xlink:href="#DejaVuSans-34" x="1729.589844"/>
     <use xlink:href="#DejaVuSans-2e" x="1793.212891"/>
     <use xlink:href="#DejaVuSans-36" x="1825"/>
     <use xlink:href="#DejaVuSans-25" x="1888.623047"/>
     <use xlink:href="#DejaVuSans-29" x="1983.642578"/>
    </g>
   </g>
   <g id="patch_26">
    <path d="M 998.966306 129.06295 
Q 997.419977 128.399776 995.873648 127.736602 
" style="fill: none; stroke: #c1d9f7; stroke-linecap: round"/>
   </g>
   <g id="text_9">
    <g id="patch_27">
     <path d="M 922.671227 152.249365 
L 1132.917321 152.249365 
Q 1138.417321 152.249365 1138.417321 146.749365 
L 1138.417321 136.103428 
Q 1138.417321 130.603428 1132.917321 130.603428 
L 922.671227 130.603428 
Q 917.171227 130.603428 917.171227 136.103428 
L 917.171227 146.749365 
Q 917.171227 152.249365 922.671227 152.249365 
z
" style="fill: #ffffff; stroke: #c1d9f7; stroke-width: 1.5; stroke-linejoin: miter"/>
    </g>
    <!-- Python - C/C++ (ctypes): 293 (45.4%) -->
    <g transform="translate(922.671227 144.461709) scale(0.11 -0.11)">
     <defs>
      <path id="DejaVuSans-65" d="M 3597 1894 
L 3597 1613 
L 953 1613 
Q 991 1019 1311 708 
Q 1631 397 2203 397 
Q 2534 397 2845 478 
Q 3156 559 3463 722 
L 3463 178 
Q 3153 47 2828 -22 
Q 2503 -91 2169 -91 
Q 1331 -91 842 396 
Q 353 884 353 1716 
Q 353 2575 817 3079 
Q 1281 3584 2069 3584 
Q 2775 3584 3186 3129 
Q 3597 2675 3597 1894 
z
M 3022 2063 
Q 3016 2534 2758 2815 
Q 2500 3097 2075 3097 
Q 1594 3097 1305 2825 
Q 1016 2553 972 2059 
L 3022 2063 
z
" transform="scale(0.015625)"/>
      <path id="DejaVuSans-73" d="M 2834 3397 
L 2834 2853 
Q 2591 2978 2328 3040 
Q 2066 3103 1784 3103 
Q 1356 3103 1142 2972 
Q 928 2841 928 2578 
Q 928 2378 1081 2264 
Q 1234 2150 1697 2047 
L 1894 2003 
Q 2506 1872 2764 1633 
Q 3022 1394 3022 966 
Q 3022 478 2636 193 
Q 2250 -91 1575 -91 
Q 1294 -91 989 -36 
Q 684 19 347 128 
L 347 722 
Q 666 556 975 473 
Q 1284 391 1588 391 
Q 1994 391 2212 530 
Q 2431 669 2431 922 
Q 2431 1156 2273 1281 
Q 2116 1406 1581 1522 
L 1381 1569 
Q 847 1681 609 1914 
Q 372 2147 372 2553 
Q 372 3047 722 3315 
Q 1072 3584 1716 3584 
Q 2034 3584 2315 3537 
Q 2597 3491 2834 3397 
z
" transform="scale(0.015625)"/>
     </defs>
     <use xlink:href="#DejaVuSans-50"/>
     <use xlink:href="#DejaVuSans-79" x="60.302734"/>
     <use xlink:href="#DejaVuSans-74" x="119.482422"/>
     <use xlink:href="#DejaVuSans-68" x="158.691406"/>
     <use xlink:href="#DejaVuSans-6f" x="222.070312"/>
     <use xlink:href="#DejaVuSans-6e" x="283.251953"/>
     <use xlink:href="#DejaVuSans-20" x="346.630859"/>
     <use xlink:href="#DejaVuSans-2d" x="378.417969"/>
     <use xlink:href="#DejaVuSans-20" x="414.501953"/>
     <use xlink:href="#DejaVuSans-43" x="446.289062"/>
     <use xlink:href="#DejaVuSans-2f" x="516.113281"/>
     <use xlink:href="#DejaVuSans-43" x="549.804688"/>
     <use xlink:href="#DejaVuSans-2b" x="619.628906"/>
     <use xlink:href="#DejaVuSans-2b" x="703.417969"/>
     <use xlink:href="#DejaVuSans-20" x="787.207031"/>
     <use xlink:href="#DejaVuSans-28" x="818.994141"/>
     <use xlink:href="#DejaVuSans-63" x="858.007812"/>
     <use xlink:href="#DejaVuSans-74" x="912.988281"/>
     <use xlink:href="#DejaVuSans-79" x="952.197266"/>
     <use xlink:href="#DejaVuSans-70" x="1011.376953"/>
     <use xlink:href="#DejaVuSans-65" x="1074.853516"/>
     <use xlink:href="#DejaVuSans-73" x="1136.376953"/>
     <use xlink:href="#DejaVuSans-29" x="1188.476562"/>
     <use xlink:href="#DejaVuSans-3a" x="1227.490234"/>
     <use xlink:href="#DejaVuSans-20" x="1261.181641"/>
     <use xlink:href="#DejaVuSans-32" x="1292.96875"/>
     <use xlink:href="#DejaVuSans-39" x="1356.591797"/>
     <use xlink:href="#DejaVuSans-33" x="1420.214844"/>
     <use xlink:href="#DejaVuSans-20" x="1483.837891"/>
     <use xlink:href="#DejaVuSans-28" x="1515.625"/>
     <use xlink:href="#DejaVuSans-34" x="1554.638672"/>
     <use xlink:href="#DejaVuSans-35" x="1618.261719"/>
     <use xlink:href="#DejaVuSans-2e" x="1681.884766"/>
     <use xlink:href="#DejaVuSans-34" x="1713.671875"/>
     <use xlink:href="#DejaVuSans-25" x="1777.294922"/>
     <use xlink:href="#DejaVuSans-29" x="1872.314453"/>
    </g>
   </g>
   <g id="text_10">
    <!-- The distribution of questions for -->
    <g transform="translate(749.736646 66.913831) scale(0.14 -0.14)">
     <use xlink:href="#DejaVuSans-Bold-54"/>
     <use xlink:href="#DejaVuSans-Bold-68" x="68.212891"/>
     <use xlink:href="#DejaVuSans-Bold-65" x="139.404297"/>
     <use xlink:href="#DejaVuSans-Bold-20" x="207.226562"/>
     <use xlink:href="#DejaVuSans-Bold-64" x="242.041016"/>
     <use xlink:href="#DejaVuSans-Bold-69" x="313.623047"/>
     <use xlink:href="#DejaVuSans-Bold-73" x="347.900391"/>
     <use xlink:href="#DejaVuSans-Bold-74" x="407.421875"/>
     <use xlink:href="#DejaVuSans-Bold-72" x="455.224609"/>
     <use xlink:href="#DejaVuSans-Bold-69" x="504.541016"/>
     <use xlink:href="#DejaVuSans-Bold-62" x="538.818359"/>
     <use xlink:href="#DejaVuSans-Bold-75" x="610.400391"/>
     <use xlink:href="#DejaVuSans-Bold-74" x="681.591797"/>
     <use xlink:href="#DejaVuSans-Bold-69" x="729.394531"/>
     <use xlink:href="#DejaVuSans-Bold-6f" x="763.671875"/>
     <use xlink:href="#DejaVuSans-Bold-6e" x="832.373047"/>
     <use xlink:href="#DejaVuSans-Bold-20" x="903.564453"/>
     <use xlink:href="#DejaVuSans-Bold-6f" x="938.378906"/>
     <use xlink:href="#DejaVuSans-Bold-66" x="1007.080078"/>
     <use xlink:href="#DejaVuSans-Bold-20" x="1050.585938"/>
     <use xlink:href="#DejaVuSans-Bold-71" x="1085.400391"/>
     <use xlink:href="#DejaVuSans-Bold-75" x="1156.982422"/>
     <use xlink:href="#DejaVuSans-Bold-65" x="1228.173828"/>
     <use xlink:href="#DejaVuSans-Bold-73" x="1295.996094"/>
     <use xlink:href="#DejaVuSans-Bold-74" x="1355.517578"/>
     <use xlink:href="#DejaVuSans-Bold-69" x="1403.320312"/>
     <use xlink:href="#DejaVuSans-Bold-6f" x="1437.597656"/>
     <use xlink:href="#DejaVuSans-Bold-6e" x="1506.298828"/>
     <use xlink:href="#DejaVuSans-Bold-73" x="1577.490234"/>
     <use xlink:href="#DejaVuSans-Bold-20" x="1637.011719"/>
     <use xlink:href="#DejaVuSans-Bold-66" x="1671.826172"/>
     <use xlink:href="#DejaVuSans-Bold-6f" x="1715.332031"/>
     <use xlink:href="#DejaVuSans-Bold-72" x="1784.033203"/>
    </g>
    <!-- Python-C language FFI-based interactions -->
    <g transform="translate(711.947583 82.590769) scale(0.14 -0.14)">
     <defs>
      <path id="DejaVuSans-Bold-50" d="M 588 4666 
L 2584 4666 
Q 3475 4666 3951 4270 
Q 4428 3875 4428 3144 
Q 4428 2409 3951 2014 
Q 3475 1619 2584 1619 
L 1791 1619 
L 1791 0 
L 588 0 
L 588 4666 
z
M 1791 3794 
L 1791 2491 
L 2456 2491 
Q 2806 2491 2997 2661 
Q 3188 2831 3188 3144 
Q 3188 3456 2997 3625 
Q 2806 3794 2456 3794 
L 1791 3794 
z
" transform="scale(0.015625)"/>
      <path id="DejaVuSans-Bold-79" d="M 78 3500 
L 1197 3500 
L 2138 1125 
L 2938 3500 
L 4056 3500 
L 2584 -331 
Q 2363 -916 2067 -1148 
Q 1772 -1381 1288 -1381 
L 641 -1381 
L 641 -647 
L 991 -647 
Q 1275 -647 1404 -556 
Q 1534 -466 1606 -231 
L 1638 -134 
L 78 3500 
z
" transform="scale(0.015625)"/>
      <path id="DejaVuSans-Bold-2d" d="M 347 2297 
L 2309 2297 
L 2309 1388 
L 347 1388 
L 347 2297 
z
" transform="scale(0.015625)"/>
      <path id="DejaVuSans-Bold-43" d="M 4288 256 
Q 3956 84 3597 -3 
Q 3238 -91 2847 -91 
Q 1681 -91 1000 561 
Q 319 1213 319 2328 
Q 319 3447 1000 4098 
Q 1681 4750 2847 4750 
Q 3238 4750 3597 4662 
Q 3956 4575 4288 4403 
L 4288 3438 
Q 3953 3666 3628 3772 
Q 3303 3878 2944 3878 
Q 2300 3878 1931 3465 
Q 1563 3053 1563 2328 
Q 1563 1606 1931 1193 
Q 2300 781 2944 781 
Q 3303 781 3628 887 
Q 3953 994 4288 1222 
L 4288 256 
z
" transform="scale(0.015625)"/>
      <path id="DejaVuSans-Bold-46" d="M 588 4666 
L 3834 4666 
L 3834 3756 
L 1791 3756 
L 1791 2888 
L 3713 2888 
L 3713 1978 
L 1791 1978 
L 1791 0 
L 588 0 
L 588 4666 
z
" transform="scale(0.015625)"/>
      <path id="DejaVuSans-Bold-49" d="M 588 4666 
L 1791 4666 
L 1791 0 
L 588 0 
L 588 4666 
z
" transform="scale(0.015625)"/>
     </defs>
     <use xlink:href="#DejaVuSans-Bold-50"/>
     <use xlink:href="#DejaVuSans-Bold-79" x="75.166016"/>
     <use xlink:href="#DejaVuSans-Bold-74" x="140.351562"/>
     <use xlink:href="#DejaVuSans-Bold-68" x="188.154297"/>
     <use xlink:href="#DejaVuSans-Bold-6f" x="259.345703"/>
     <use xlink:href="#DejaVuSans-Bold-6e" x="328.046875"/>
     <use xlink:href="#DejaVuSans-Bold-2d" x="399.238281"/>
     <use xlink:href="#DejaVuSans-Bold-43" x="440.742188"/>
     <use xlink:href="#DejaVuSans-Bold-20" x="514.130859"/>
     <use xlink:href="#DejaVuSans-Bold-6c" x="548.945312"/>
     <use xlink:href="#DejaVuSans-Bold-61" x="583.222656"/>
     <use xlink:href="#DejaVuSans-Bold-6e" x="650.703125"/>
     <use xlink:href="#DejaVuSans-Bold-67" x="721.894531"/>
     <use xlink:href="#DejaVuSans-Bold-75" x="793.476562"/>
     <use xlink:href="#DejaVuSans-Bold-61" x="864.667969"/>
     <use xlink:href="#DejaVuSans-Bold-67" x="932.148438"/>
     <use xlink:href="#DejaVuSans-Bold-65" x="1003.730469"/>
     <use xlink:href="#DejaVuSans-Bold-20" x="1071.552734"/>
     <use xlink:href="#DejaVuSans-Bold-46" x="1106.367188"/>
     <use xlink:href="#DejaVuSans-Bold-46" x="1174.677734"/>
     <use xlink:href="#DejaVuSans-Bold-49" x="1242.988281"/>
     <use xlink:href="#DejaVuSans-Bold-2d" x="1280.195312"/>
     <use xlink:href="#DejaVuSans-Bold-62" x="1321.699219"/>
     <use xlink:href="#DejaVuSans-Bold-61" x="1393.28125"/>
     <use xlink:href="#DejaVuSans-Bold-73" x="1460.761719"/>
     <use xlink:href="#DejaVuSans-Bold-65" x="1520.283203"/>
     <use xlink:href="#DejaVuSans-Bold-64" x="1588.105469"/>
     <use xlink:href="#DejaVuSans-Bold-20" x="1659.6875"/>
     <use xlink:href="#DejaVuSans-Bold-69" x="1694.501953"/>
     <use xlink:href="#DejaVuSans-Bold-6e" x="1728.779297"/>
     <use xlink:href="#DejaVuSans-Bold-74" x="1799.970703"/>
     <use xlink:href="#DejaVuSans-Bold-65" x="1847.773438"/>
     <use xlink:href="#DejaVuSans-Bold-72" x="1915.595703"/>
     <use xlink:href="#DejaVuSans-Bold-61" x="1964.912109"/>
     <use xlink:href="#DejaVuSans-Bold-63" x="2032.392578"/>
     <use xlink:href="#DejaVuSans-Bold-74" x="2091.669922"/>
     <use xlink:href="#DejaVuSans-Bold-69" x="2139.472656"/>
     <use xlink:href="#DejaVuSans-Bold-6f" x="2173.75"/>
     <use xlink:href="#DejaVuSans-Bold-6e" x="2242.451172"/>
     <use xlink:href="#DejaVuSans-Bold-73" x="2313.642578"/>
    </g>
   </g>
  </g>
  <g id="text_11">
   <!-- The distribution of questions in the programming language interaction benchmark -->
   <g transform="translate(202.25125 23.6775) scale(0.16 -0.16)">
    <defs>
     <path id="DejaVuSans-Bold-6b" d="M 538 4863 
L 1656 4863 
L 1656 2216 
L 2944 3500 
L 4244 3500 
L 2534 1894 
L 4378 0 
L 3022 0 
L 1656 1459 
L 1656 0 
L 538 0 
L 538 4863 
z
" transform="scale(0.015625)"/>
    </defs>
    <use xlink:href="#DejaVuSans-Bold-54"/>
    <use xlink:href="#DejaVuSans-Bold-68" x="68.212891"/>
    <use xlink:href="#DejaVuSans-Bold-65" x="139.404297"/>
    <use xlink:href="#DejaVuSans-Bold-20" x="207.226562"/>
    <use xlink:href="#DejaVuSans-Bold-64" x="242.041016"/>
    <use xlink:href="#DejaVuSans-Bold-69" x="313.623047"/>
    <use xlink:href="#DejaVuSans-Bold-73" x="347.900391"/>
    <use xlink:href="#DejaVuSans-Bold-74" x="407.421875"/>
    <use xlink:href="#DejaVuSans-Bold-72" x="455.224609"/>
    <use xlink:href="#DejaVuSans-Bold-69" x="504.541016"/>
    <use xlink:href="#DejaVuSans-Bold-62" x="538.818359"/>
    <use xlink:href="#DejaVuSans-Bold-75" x="610.400391"/>
    <use xlink:href="#DejaVuSans-Bold-74" x="681.591797"/>
    <use xlink:href="#DejaVuSans-Bold-69" x="729.394531"/>
    <use xlink:href="#DejaVuSans-Bold-6f" x="763.671875"/>
    <use xlink:href="#DejaVuSans-Bold-6e" x="832.373047"/>
    <use xlink:href="#DejaVuSans-Bold-20" x="903.564453"/>
    <use xlink:href="#DejaVuSans-Bold-6f" x="938.378906"/>
    <use xlink:href="#DejaVuSans-Bold-66" x="1007.080078"/>
    <use xlink:href="#DejaVuSans-Bold-20" x="1050.585938"/>
    <use xlink:href="#DejaVuSans-Bold-71" x="1085.400391"/>
    <use xlink:href="#DejaVuSans-Bold-75" x="1156.982422"/>
    <use xlink:href="#DejaVuSans-Bold-65" x="1228.173828"/>
    <use xlink:href="#DejaVuSans-Bold-73" x="1295.996094"/>
    <use xlink:href="#DejaVuSans-Bold-74" x="1355.517578"/>
    <use xlink:href="#DejaVuSans-Bold-69" x="1403.320312"/>
    <use xlink:href="#DejaVuSans-Bold-6f" x="1437.597656"/>
    <use xlink:href="#DejaVuSans-Bold-6e" x="1506.298828"/>
    <use xlink:href="#DejaVuSans-Bold-73" x="1577.490234"/>
    <use xlink:href="#DejaVuSans-Bold-20" x="1637.011719"/>
    <use xlink:href="#DejaVuSans-Bold-69" x="1671.826172"/>
    <use xlink:href="#DejaVuSans-Bold-6e" x="1706.103516"/>
    <use xlink:href="#DejaVuSans-Bold-20" x="1777.294922"/>
    <use xlink:href="#DejaVuSans-Bold-74" x="1812.109375"/>
    <use xlink:href="#DejaVuSans-Bold-68" x="1859.912109"/>
    <use xlink:href="#DejaVuSans-Bold-65" x="1931.103516"/>
    <use xlink:href="#DejaVuSans-Bold-20" x="1998.925781"/>
    <use xlink:href="#DejaVuSans-Bold-70" x="2033.740234"/>
    <use xlink:href="#DejaVuSans-Bold-72" x="2105.322266"/>
    <use xlink:href="#DejaVuSans-Bold-6f" x="2154.638672"/>
    <use xlink:href="#DejaVuSans-Bold-67" x="2223.339844"/>
    <use xlink:href="#DejaVuSans-Bold-72" x="2294.921875"/>
    <use xlink:href="#DejaVuSans-Bold-61" x="2344.238281"/>
    <use xlink:href="#DejaVuSans-Bold-6d" x="2411.71875"/>
    <use xlink:href="#DejaVuSans-Bold-6d" x="2515.917969"/>
    <use xlink:href="#DejaVuSans-Bold-69" x="2620.117188"/>
    <use xlink:href="#DejaVuSans-Bold-6e" x="2654.394531"/>
    <use xlink:href="#DejaVuSans-Bold-67" x="2725.585938"/>
    <use xlink:href="#DejaVuSans-Bold-20" x="2797.167969"/>
    <use xlink:href="#DejaVuSans-Bold-6c" x="2831.982422"/>
    <use xlink:href="#DejaVuSans-Bold-61" x="2866.259766"/>
    <use xlink:href="#DejaVuSans-Bold-6e" x="2933.740234"/>
    <use xlink:href="#DejaVuSans-Bold-67" x="3004.931641"/>
    <use xlink:href="#DejaVuSans-Bold-75" x="3076.513672"/>
    <use xlink:href="#DejaVuSans-Bold-61" x="3147.705078"/>
    <use xlink:href="#DejaVuSans-Bold-67" x="3215.185547"/>
    <use xlink:href="#DejaVuSans-Bold-65" x="3286.767578"/>
    <use xlink:href="#DejaVuSans-Bold-20" x="3354.589844"/>
    <use xlink:href="#DejaVuSans-Bold-69" x="3389.404297"/>
    <use xlink:href="#DejaVuSans-Bold-6e" x="3423.681641"/>
    <use xlink:href="#DejaVuSans-Bold-74" x="3494.873047"/>
    <use xlink:href="#DejaVuSans-Bold-65" x="3542.675781"/>
    <use xlink:href="#DejaVuSans-Bold-72" x="3610.498047"/>
    <use xlink:href="#DejaVuSans-Bold-61" x="3659.814453"/>
    <use xlink:href="#DejaVuSans-Bold-63" x="3727.294922"/>
    <use xlink:href="#DejaVuSans-Bold-74" x="3786.572266"/>
    <use xlink:href="#DejaVuSans-Bold-69" x="3834.375"/>
    <use xlink:href="#DejaVuSans-Bold-6f" x="3868.652344"/>
    <use xlink:href="#DejaVuSans-Bold-6e" x="3937.353516"/>
    <use xlink:href="#DejaVuSans-Bold-20" x="4008.544922"/>
    <use xlink:href="#DejaVuSans-Bold-62" x="4043.359375"/>
    <use xlink:href="#DejaVuSans-Bold-65" x="4114.941406"/>
    <use xlink:href="#DejaVuSans-Bold-6e" x="4182.763672"/>
    <use xlink:href="#DejaVuSans-Bold-63" x="4253.955078"/>
    <use xlink:href="#DejaVuSans-Bold-68" x="4313.232422"/>
    <use xlink:href="#DejaVuSans-Bold-6d" x="4384.423828"/>
    <use xlink:href="#DejaVuSans-Bold-61" x="4488.623047"/>
    <use xlink:href="#DejaVuSans-Bold-72" x="4556.103516"/>
    <use xlink:href="#DejaVuSans-Bold-6b" x="4605.419922"/>
   </g>
  </g>
 </g>
 <defs>
  <clipPath id="p4bff91250f">
   <rect x="94.125138" y="102.590769" width="425.127554" height="425.127554"/>
  </clipPath>
  <clipPath id="p88a3ea046d">
   <rect x="665.50365" y="102.590769" width="425.127554" height="425.127554"/>
  </clipPath>
 </defs>
</svg>
