<svg width="4173" height="1137" xmlns="http://www.w3.org/2000/svg" xmlns:xlink="http://www.w3.org/1999/xlink" xml:space="preserve" overflow="hidden"><g transform="translate(-110 -664)"><rect x="1153.5" y="693.5" width="2075" height="540" stroke="#172C51" stroke-width="4.58333" stroke-miterlimit="8" stroke-dasharray="18.3333 13.75 4.58333 13.75" fill="#E2F0D9"/><rect x="1147.5" y="1249.5" width="2075" height="549" stroke="#172C51" stroke-width="4.58333" stroke-miterlimit="8" stroke-dasharray="18.3333 13.75 4.58333 13.75" fill="#DEEBF7"/><path d="M112.5 1246.5C112.5 1174.7 170.703 1116.5 242.5 1116.5 314.297 1116.5 372.5 1174.7 372.5 1246.5 372.5 1318.3 314.297 1376.5 242.5 1376.5 170.703 1376.5 112.5 1318.3 112.5 1246.5Z" stroke="#172C51" stroke-width="4.58333" stroke-miterlimit="8" fill="#E7E6E6" fill-rule="evenodd"/><text fill="#203864" font-family="Times New Roman,Times New Roman_MSFontService,sans-serif" font-weight="700" font-size="83" transform="matrix(1 0 0 1 198.72 1276)">S0</text><text fill="#333333" font-family="Times New Roman,Times New Roman_MSFontService,sans-serif" font-weight="400" font-size="64" transform="matrix(1 0 0 1 411.509 1189)">import java.net.*</text><path d="M887.5 1246.5C887.5 1174.7 945.703 1116.5 1017.5 1116.5 1089.3 1116.5 1147.5 1174.7 1147.5 1246.5 1147.5 1318.3 1089.3 1376.5 1017.5 1376.5 945.703 1376.5 887.5 1318.3 887.5 1246.5Z" stroke="#172C51" stroke-width="4.58333" stroke-miterlimit="8" fill="#E7E6E6" fill-rule="evenodd"/><text fill="#203864" font-family="Times New Roman,Times New Roman_MSFontService,sans-serif" font-weight="700" font-size="83" transform="matrix(1 0 0 1 973.777 1293)">S1</text><path d="M372.5 1244.21 864.798 1244.21 864.798 1248.79 372.5 1248.79ZM860.214 1232.75 887.714 1246.5 860.214 1260.25Z" fill="#7C7C7C"/><path d="M1558.5 848.5C1558.5 776.703 1616.7 718.5 1688.5 718.5 1760.3 718.5 1818.5 776.703 1818.5 848.5 1818.5 920.297 1760.3 978.5 1688.5 978.5 1616.7 978.5 1558.5 920.297 1558.5 848.5Z" stroke="#172C51" stroke-width="4.58333" stroke-miterlimit="8" fill="#E7E6E6" fill-rule="evenodd"/><text fill="#203864" font-family="Times New Roman,Times New Roman_MSFontService,sans-serif" font-weight="700" font-size="83" transform="matrix(1 0 0 1 1644.24 895)">S2</text><path d="M1558.5 1627.5C1558.5 1555.7 1616.7 1497.5 1688.5 1497.5 1760.3 1497.5 1818.5 1555.7 1818.5 1627.5 1818.5 1699.3 1760.3 1757.5 1688.5 1757.5 1616.7 1757.5 1558.5 1699.3 1558.5 1627.5Z" stroke="#172C51" stroke-width="4.58333" stroke-miterlimit="8" fill="#E7E6E6" fill-rule="evenodd"/><text fill="#203864" font-family="Times New Roman,Times New Roman_MSFontService,sans-serif" font-weight="700" font-size="83" transform="matrix(1 0 0 1 1644.24 1674)">S4</text><path d="M2470.5 848.5C2470.5 776.703 2528.7 718.5 2600.5 718.5 2672.3 718.5 2730.5 776.703 2730.5 848.5 2730.5 920.297 2672.3 978.5 2600.5 978.5 2528.7 978.5 2470.5 920.297 2470.5 848.5Z" stroke="#172C51" stroke-width="4.58333" stroke-miterlimit="8" fill="#E7E6E6" fill-rule="evenodd"/><text fill="#203864" font-family="Times New Roman,Times New Roman_MSFontService,sans-serif" font-weight="700" font-size="83" transform="matrix(1 0 0 1 2556.28 895)">S3</text><path d="M2470.5 1627.5C2470.5 1555.7 2528.7 1497.5 2600.5 1497.5 2672.3 1497.5 2730.5 1555.7 2730.5 1627.5 2730.5 1699.3 2672.3 1757.5 2600.5 1757.5 2528.7 1757.5 2470.5 1699.3 2470.5 1627.5Z" stroke="#172C51" stroke-width="4.58333" stroke-miterlimit="8" fill="#E7E6E6" fill-rule="evenodd"/><text fill="#203864" font-family="Times New Roman,Times New Roman_MSFontService,sans-serif" font-weight="700" font-size="83" transform="matrix(1 0 0 1 2556.28 1674)">S5</text><path d="M3228.5 1246.5C3228.5 1174.7 3286.48 1116.5 3358 1116.5 3429.52 1116.5 3487.5 1174.7 3487.5 1246.5 3487.5 1318.3 3429.52 1376.5 3358 1376.5 3286.48 1376.5 3228.5 1318.3 3228.5 1246.5Z" stroke="#172C51" stroke-width="4.58333" stroke-miterlimit="8" fill="#E7E6E6" fill-rule="evenodd"/><text fill="#203864" font-family="Times New Roman,Times New Roman_MSFontService,sans-serif" font-weight="700" font-size="83" transform="matrix(1 0 0 1 3314.03 1293)">S6</text><path d="M4020.5 1246.5C4020.5 1174.7 4078.7 1116.5 4150.5 1116.5 4222.3 1116.5 4280.5 1174.7 4280.5 1246.5 4280.5 1318.3 4222.3 1376.5 4150.5 1376.5 4078.7 1376.5 4020.5 1318.3 4020.5 1246.5Z" stroke="#172C51" stroke-width="4.58333" stroke-miterlimit="8" fill="#E7E6E6" fill-rule="evenodd"/><text fill="#203864" font-family="Times New Roman,Times New Roman_MSFontService,sans-serif" font-weight="700" font-size="83" transform="matrix(1 0 0 1 4106.37 1293)">S7</text><path d="M1818.5 846.208 2447.78 846.209 2447.78 850.792 1818.5 850.792ZM2443.2 834.75 2470.7 848.5 2443.2 862.25Z" fill="#7C7C7C"/><path d="M1818.5 1625.21 2447.78 1625.21 2447.78 1629.79 1818.5 1629.79ZM2443.2 1613.75 2470.7 1627.5 2443.2 1641.25Z" fill="#7C7C7C"/><path d="M1.59359-1.64688 395.746 379.751 392.559 383.045-1.59359 1.64688ZM400.419 368.329 410.62 397.333 381.296 388.092Z" fill="#7C7C7C" transform="matrix(1 0 0 -1 1147.5 1245.83)"/><path d="M1149.06 1244.82 1542.88 1610.18 1539.76 1613.54 1145.94 1248.18ZM1547.31 1598.67 1558.12 1627.45 1528.61 1618.83Z" fill="#7C7C7C"/><path d="M2731.93 846.709 3211.92 1229.75 3209.06 1233.33 2729.07 850.291ZM3215.49 1217.93 3228.4 1245.83 3198.33 1239.43Z" fill="#7C7C7C"/><path d="M1.39254-1.82005 481.096 365.206 478.311 368.846-1.39254 1.82005ZM484.418 353.32 497.903 380.95 467.708 375.16Z" fill="#7C7C7C" transform="matrix(1 0 0 -1 2730.5 1627.45)"/><path d="M3487.5 1244.21 3997.08 1244.21 3997.08 1248.79 3487.5 1248.79ZM3992.5 1232.75 4020 1246.5 3992.5 1260.25Z" fill="#7C7C7C"/><text fill="#333333" font-family="Times New Roman,Times New Roman_MSFontService,sans-serif" font-weight="400" font-size="64" transform="matrix(0.724179 -0.689612 0.689612 0.724179 1187.66 1119)">New </text><text fill="#333333" font-family="Times New Roman,Times New Roman_MSFontService,sans-serif" font-weight="400" font-size="64" transform="matrix(0.724179 -0.689612 0.689612 0.724179 1287.23 1024)">ServerSocket</text><text fill="#333333" font-family="Times New Roman,Times New Roman_MSFontService,sans-serif" font-weight="400" font-size="64" transform="matrix(0.732175 0.681116 -0.681116 0.732175 1187.01 1427)">New Socket</text><text fill="#333333" font-family="Times New Roman,Times New Roman_MSFontService,sans-serif" font-weight="400" font-size="64" transform="matrix(1 0 0 1 2102.28 804)">accept</text><text fill="#333333" font-family="Times New Roman,Times New Roman_MSFontService,sans-serif" font-weight="400" font-size="64" transform="matrix(1 0 0 1 2084.52 1588)">connect</text><text fill="#333333" font-family="Times New Roman,Times New Roman_MSFontService,sans-serif" font-weight="400" font-size="64" transform="matrix(0.78585 0.618417 -0.618417 0.78585 2860.61 782)">getinputStream</text><text fill="#333333" font-family="Times New Roman,Times New Roman_MSFontService,sans-serif" font-weight="400" font-size="64" transform="matrix(0.78585 0.618417 -0.618417 0.78585 3168.57 1024)">/</text><text fill="#333333" font-family="Times New Roman,Times New Roman_MSFontService,sans-serif" font-weight="400" font-size="64" transform="matrix(0.78585 0.618417 -0.618417 0.78585 2801.74 833)">getOutputStream</text><text fill="#333333" font-family="Times New Roman,Times New Roman_MSFontService,sans-serif" font-weight="400" font-size="64" transform="matrix(0.795193 -0.606357 0.606357 0.795193 2832.02 1660)">getinputStream</text><text fill="#333333" font-family="Times New Roman,Times New Roman_MSFontService,sans-serif" font-weight="400" font-size="64" transform="matrix(0.795193 -0.606357 0.606357 0.795193 3143.64 1423)">/</text><text fill="#333333" font-family="Times New Roman,Times New Roman_MSFontService,sans-serif" font-weight="400" font-size="64" transform="matrix(0.795193 -0.606357 0.606357 0.795193 2867.32 1730)">getOutputStream</text><text fill="#333333" font-family="Times New Roman,Times New Roman_MSFontService,sans-serif" font-weight="400" font-size="64" transform="matrix(1 0 0 1 3687.57 1189)">close</text><text fill="#C00000" font-family="Times New Roman,Times New Roman_MSFontService,sans-serif" font-weight="400" font-size="64" transform="matrix(1 0 0 1 1935.34 1183)">java.net server</text><text fill="#C00000" font-family="Times New Roman,Times New Roman_MSFontService,sans-serif" font-weight="400" font-size="64" transform="matrix(1 0 0 1 2308.75 1183)">-</text><text fill="#C00000" font-family="Times New Roman,Times New Roman_MSFontService,sans-serif" font-weight="400" font-size="64" transform="matrix(1 0 0 1 2329.95 1183)">side</text><text fill="#C00000" font-family="Times New Roman,Times New Roman_MSFontService,sans-serif" font-weight="400" font-size="64" transform="matrix(1 0 0 1 1941.86 1334)">java.net client</text><text fill="#C00000" font-family="Times New Roman,Times New Roman_MSFontService,sans-serif" font-weight="400" font-size="64" transform="matrix(1 0 0 1 2302.23 1334)">-</text><text fill="#C00000" font-family="Times New Roman,Times New Roman_MSFontService,sans-serif" font-weight="400" font-size="64" transform="matrix(1 0 0 1 2323.43 1334)">side</text></g></svg>